<?xml version="1.0" encoding="UTF-8"?>
<!-- Generated by Pixelmator Pro 3.6.17 -->
<svg width="360" height="150" viewBox="0 0 360 150" xmlns="http://www.w3.org/2000/svg">
    <path id="bezahlt" fill="#1eb100" fill-rule="evenodd" stroke="none" d="M 288.681152 93.140137 C 290.321777 93.140137 292.290527 92.78125 294.587402 92.063477 L 294.587402 99.046387 C 292.249512 100.092293 289.378418 100.615234 285.974121 100.615234 C 282.221191 100.615234 279.488525 99.666756 277.776123 97.769775 C 276.063721 95.872795 275.20752 93.027359 275.20752 89.233398 L 275.20752 72.652832 L 270.716309 72.652832 L 270.716309 68.68457 L 275.884277 65.546875 L 278.591309 58.287109 L 284.589844 58.287109 L 284.589844 65.608398 L 294.218262 65.608398 L 294.218262 72.652832 L 284.589844 72.652832 L 284.589844 89.233398 C 284.589844 90.566414 284.964111 91.550781 285.712646 92.186523 C 286.461182 92.822266 287.450684 93.140137 288.681152 93.140137 Z M 264.348633 100 L 254.966309 100 L 254.966309 52.134766 L 264.348633 52.134766 Z M 245.307129 100 L 235.924805 100 L 235.924805 79.912598 C 235.924805 74.949677 234.079117 72.468262 230.387695 72.468262 C 227.76268 72.468262 225.865723 73.360344 224.696777 75.144531 C 223.527832 76.928719 222.943359 79.820297 222.943359 83.819336 L 222.943359 100 L 213.561035 100 L 213.561035 52.134766 L 222.943359 52.134766 L 222.943359 61.88623 C 222.943359 62.64502 222.871582 64.429184 222.728027 67.23877 L 222.512695 70.007324 L 223.004883 70.007324 C 225.096695 66.644028 228.41893 64.962402 232.97168 64.962402 C 237.011734 64.962402 240.077621 66.049301 242.169434 68.223145 C 244.261246 70.396988 245.307129 73.514145 245.307129 77.574707 Z M 197.349609 100 L 195.534668 95.324219 L 195.288574 95.324219 C 193.709457 97.313484 192.084244 98.692627 190.412842 99.46167 C 188.741455 100.230713 186.562515 100.615234 183.875977 100.615234 C 180.574203 100.615234 177.974854 99.671883 176.077881 97.785156 C 174.180908 95.89843 173.232422 93.211929 173.232422 89.725586 C 173.232422 86.07518 174.509018 83.383553 177.062256 81.650635 C 179.615494 79.917717 183.46579 78.958984 188.613281 78.774414 L 194.581055 78.589844 L 194.581055 77.08252 C 194.581055 73.596176 192.79689 71.853027 189.228516 71.853027 C 186.480453 71.853027 183.250504 72.683586 179.538574 74.344727 L 176.431641 68.007813 C 180.389679 65.936508 184.77829 64.900879 189.597656 64.900879 C 194.211945 64.900879 197.749496 65.905746 200.210449 67.915527 C 202.671402 69.925308 203.901855 72.980942 203.901855 77.08252 L 203.901855 100 Z M 194.581055 84.06543 L 190.951172 84.188477 C 188.223618 84.270508 186.193359 84.762695 184.860352 85.665039 C 183.527344 86.567383 182.86084 87.941399 182.86084 89.787109 C 182.86084 92.432632 184.378403 93.755371 187.413574 93.755371 C 189.587402 93.755371 191.325439 93.12989 192.627686 91.878906 C 193.929932 90.627922 194.581055 88.966805 194.581055 86.895508 Z M 168.710449 100 L 141.547852 100 L 141.547852 94.462891 L 157.482422 72.775879 L 142.501465 72.775879 L 142.501465 65.608398 L 168.156738 65.608398 L 168.156738 71.699219 L 152.652832 92.83252 L 168.710449 92.83252 Z M 122.414063 71.637695 C 120.424789 71.637695 118.866211 72.268303 117.738281 73.529541 C 116.610352 74.790779 115.964355 76.580063 115.800293 78.897461 L 128.966309 78.897461 C 128.925293 76.580063 128.320313 74.790779 127.151367 73.529541 C 125.982414 72.268303 124.403336 71.637695 122.414063 71.637695 Z M 123.736816 100.615234 C 118.199677 100.615234 113.872574 99.087418 110.755371 96.031738 C 107.638168 92.976059 106.07959 88.648956 106.07959 83.050293 C 106.07959 77.287567 107.520248 72.832291 110.401611 69.684326 C 113.282974 66.536362 117.266571 64.962402 122.352539 64.962402 C 127.212914 64.962402 130.996567 66.346664 133.703613 69.115234 C 136.41066 71.883804 137.76416 75.708473 137.76416 80.589355 L 137.76416 85.14209 L 115.584961 85.14209 C 115.6875 87.808121 116.477043 89.889641 117.953613 91.386719 C 119.430183 92.883797 121.50145 93.632324 124.16748 93.632324 C 126.238777 93.632324 128.197266 93.416992 130.042969 92.986328 C 131.888672 92.555664 133.816406 91.868652 135.826172 90.925293 L 135.826172 98.185059 C 134.185547 99.005371 132.432129 99.615479 130.565918 100.015381 C 128.699707 100.415283 126.423355 100.615234 123.736816 100.615234 Z M 87.437988 64.962402 C 91.498558 64.962402 94.677231 66.546616 96.974121 69.715088 C 99.271011 72.88356 100.419434 77.226044 100.419434 82.742676 C 100.419434 88.42337 99.235123 92.82225 96.866455 95.939453 C 94.497787 99.056656 91.272972 100.615234 87.191895 100.615234 C 83.151833 100.615234 79.983414 99.148941 77.686523 96.216309 L 77.040527 96.216309 L 75.47168 100 L 68.304199 100 L 68.304199 52.134766 L 77.686523 52.134766 L 77.686523 63.270508 C 77.686523 64.685555 77.563477 66.951645 77.317383 70.068848 L 77.686523 70.068848 C 79.880875 66.664536 83.131325 64.962402 87.437988 64.962402 Z M 84.42334 72.468262 C 82.105942 72.468262 80.41407 73.180901 79.347656 74.606201 C 78.281242 76.031502 77.727539 78.38475 77.686523 81.666016 L 77.686523 82.681152 C 77.686523 86.372574 78.2351 89.018059 79.332275 90.617676 C 80.429451 92.217293 82.167465 93.01709 84.546387 93.01709 C 86.474129 93.01709 88.007072 92.130135 89.145264 90.356201 C 90.283455 88.582268 90.852539 86.003433 90.852539 82.619629 C 90.852539 79.235825 90.278328 76.698006 89.129883 75.006104 C 87.981438 73.314201 86.412605 72.468262 84.42334 72.468262 Z"/>
    <path id="Abgerundetes-Rechteck" fill="none" stroke="#1eb100" stroke-width="7" stroke-linecap="round" stroke-linejoin="round" d="M 9 101 C 9 123.091393 26.908609 141 49 141 L 311 141 C 333.0914 141 351 123.091393 351 101 L 351 54 C 351 31.908607 333.0914 14 311 14 L 49 14 C 26.908609 14 9 31.908607 9 54 Z"/>
</svg>
