<?xml version="1.0" encoding="UTF-8"?>
<!-- Generated by Pixelmator Pro 3.6.17 -->
<svg width="360" height="150" viewBox="0 0 360 150" xmlns="http://www.w3.org/2000/svg">
    <path id="berfllig" fill="#b51700" fill-rule="evenodd" stroke="none" d="M 330.670898 65.608398 L 330.670898 70.376465 L 325.287598 71.760742 C 326.271973 73.298836 326.76416 75.021477 326.76416 76.928711 C 326.76416 80.620132 325.477295 83.496323 322.903564 85.557373 C 320.329834 87.618416 316.756378 88.648926 312.183105 88.648926 L 310.491211 88.556641 L 309.106934 88.402832 C 308.143066 89.141113 307.661133 89.961426 307.661133 90.86377 C 307.661133 92.217293 309.383759 92.894043 312.829102 92.894043 L 318.673828 92.894043 C 322.447296 92.894043 325.323486 93.704094 327.30249 95.324219 C 329.281494 96.944344 330.270996 99.323227 330.270996 102.460938 C 330.270996 106.480484 328.594513 109.597641 325.241455 111.8125 C 321.888397 114.027359 317.074249 115.134766 310.798828 115.134766 C 305.999969 115.134766 302.334229 114.29908 299.801514 112.627686 C 297.268799 110.956291 296.002441 108.613297 296.002441 105.598633 C 296.002441 103.527328 296.648438 101.794441 297.94043 100.399902 C 299.232422 99.005363 301.129395 98.010742 303.631348 97.416016 C 302.66748 97.005859 301.82666 96.334229 301.108887 95.401123 C 300.391113 94.468018 300.032227 93.478523 300.032227 92.432617 C 300.032227 91.12011 300.411621 90.028076 301.17041 89.156494 C 301.929199 88.284912 303.026367 87.428711 304.461914 86.587891 C 302.657227 85.808594 301.226807 84.557625 300.170654 82.834961 C 299.114502 81.112297 298.586426 79.082047 298.586426 76.744141 C 298.586426 72.991196 299.806641 70.089371 302.24707 68.038574 C 304.6875 65.987778 308.173798 64.962402 312.706055 64.962402 C 313.669922 64.962402 314.813232 65.049561 316.135986 65.223877 C 317.45874 65.398193 318.304688 65.526367 318.673828 65.608398 Z M 304.123535 104.860352 C 304.123535 106.152351 304.743896 107.16748 305.984619 107.905762 C 307.225342 108.644043 308.963379 109.013184 311.19873 109.013184 C 314.562042 109.013184 317.197266 108.551758 319.104492 107.628906 C 321.011719 106.706055 321.965332 105.444832 321.965332 103.845215 C 321.965332 102.553215 321.401367 101.661133 320.273438 101.168945 C 319.145508 100.676758 317.402344 100.430664 315.043945 100.430664 L 310.183594 100.430664 C 308.460938 100.430664 307.020264 100.835693 305.861572 101.645752 C 304.702881 102.455811 304.123535 103.527336 304.123535 104.860352 Z M 307.538086 76.867188 C 307.538086 78.733406 307.963623 80.209961 308.814697 81.296875 C 309.665771 82.383789 310.962891 82.927246 312.706055 82.927246 C 314.469727 82.927246 315.761719 82.383789 316.582031 81.296875 C 317.402344 80.209961 317.8125 78.733406 317.8125 76.867188 C 317.8125 72.724594 316.110382 70.65332 312.706055 70.65332 C 309.260712 70.65332 307.538086 72.724594 307.538086 76.867188 Z M 281.11377 56.718262 C 281.11377 53.662582 282.815918 52.134766 286.220215 52.134766 C 289.624542 52.134766 291.32666 53.662582 291.32666 56.718262 C 291.32666 58.174324 290.901123 59.307373 290.050049 60.117432 C 289.198975 60.92749 287.922363 61.33252 286.220215 61.33252 C 282.815918 61.33252 281.11377 59.794449 281.11377 56.718262 Z M 290.895996 100 L 281.513672 100 L 281.513672 65.608398 L 290.895996 65.608398 Z M 271.669922 100 L 262.287598 100 L 262.287598 52.134766 L 271.669922 52.134766 Z M 252.443848 100 L 243.061523 100 L 243.061523 52.134766 L 252.443848 52.134766 Z M 171.202148 64.962402 C 172.473633 64.962402 173.529785 65.054688 174.370605 65.239258 L 173.663086 74.037109 C 172.904297 73.832031 171.981445 73.729492 170.894531 73.729492 C 167.900375 73.729492 165.567642 74.498528 163.89624 76.036621 C 162.224838 77.574715 161.38916 79.728012 161.38916 82.496582 L 161.38916 100 L 152.006836 100 L 152.006836 65.608398 L 159.112793 65.608398 L 160.49707 71.391602 L 160.958496 71.391602 C 162.024902 69.463852 163.465561 67.910408 165.280518 66.731201 C 167.095474 65.551994 169.069321 64.962402 171.202148 64.962402 Z M 129.027832 71.637695 C 127.038567 71.637695 125.479988 72.268303 124.352051 73.529541 C 123.224113 74.790779 122.578125 76.580063 122.414063 78.897461 L 135.580078 78.897461 C 135.539063 76.580063 134.934082 74.790779 133.765137 73.529541 C 132.596191 72.268303 131.01709 71.637695 129.027832 71.637695 Z M 130.350586 100.615234 C 124.813446 100.615234 120.486343 99.087418 117.369141 96.031738 C 114.251938 92.976059 112.693359 88.648956 112.693359 83.050293 C 112.693359 77.287567 114.134018 72.832291 117.015381 69.684326 C 119.896744 66.536362 123.880348 64.962402 128.966309 64.962402 C 133.826691 64.962402 137.610336 66.346664 140.317383 69.115234 C 143.024429 71.883804 144.37793 75.708473 144.37793 80.589355 L 144.37793 85.14209 L 122.19873 85.14209 C 122.30127 87.808121 123.090813 89.889641 124.567383 91.386719 C 126.043953 92.883797 128.115219 93.632324 130.78125 93.632324 C 132.852539 93.632324 134.811035 93.416992 136.656738 92.986328 C 138.502441 92.555664 140.430176 91.868652 142.439941 90.925293 L 142.439941 98.185059 C 140.799316 99.005371 139.045898 99.615479 137.179688 100.015381 C 135.313477 100.415283 133.037125 100.615234 130.350586 100.615234 Z M 94.051758 64.962402 C 98.112328 64.962402 101.291 66.546616 103.587891 69.715088 C 105.884781 72.88356 107.033203 77.226044 107.033203 82.742676 C 107.033203 88.42337 105.848892 92.82225 103.480225 95.939453 C 101.111557 99.056656 97.886742 100.615234 93.805664 100.615234 C 89.76561 100.615234 86.597183 99.148941 84.300293 96.216309 L 83.654297 96.216309 L 82.085449 100 L 74.917969 100 L 74.917969 52.134766 L 84.300293 52.134766 L 84.300293 63.270508 C 84.300293 64.685555 84.177246 66.951645 83.931152 70.068848 L 84.300293 70.068848 C 86.494644 66.664536 89.745094 64.962402 94.051758 64.962402 Z M 91.037109 72.468262 C 88.719711 72.468262 87.027832 73.180901 85.961426 74.606201 C 84.89502 76.031502 84.341309 78.38475 84.300293 81.666016 L 84.300293 82.681152 C 84.300293 86.372574 84.848877 89.018059 85.946045 90.617676 C 87.043213 92.217293 88.781235 93.01709 91.160156 93.01709 C 93.087898 93.01709 94.620842 92.130135 95.759033 90.356201 C 96.897224 88.582268 97.466309 86.003433 97.466309 82.619629 C 97.466309 79.235825 96.892097 76.698006 95.743652 75.006104 C 94.595207 73.314201 93.026375 72.468262 91.037109 72.468262 Z M 57.875977 100 L 56.614746 95.601074 L 56.122559 95.601074 C 55.117668 97.200691 53.69239 98.436279 51.84668 99.307861 C 50.000969 100.179443 47.898937 100.615234 45.540527 100.615234 C 41.500469 100.615234 38.45509 99.533463 36.404297 97.369873 C 34.353504 95.206284 33.328125 92.094261 33.328125 88.033691 L 33.328125 65.608398 L 42.710449 65.608398 L 42.710449 85.695801 C 42.710449 88.177261 43.151363 90.038322 44.033203 91.279053 C 44.915043 92.519783 46.319817 93.140137 48.247559 93.140137 C 50.872574 93.140137 52.769524 92.263435 53.938477 90.51001 C 55.10743 88.756584 55.691895 85.849625 55.691895 81.789063 L 55.691895 65.608398 L 65.074219 65.608398 L 65.074219 100 Z M 38.619141 56.779785 C 38.619141 55.44677 39.003658 54.421387 39.772705 53.703613 C 40.541752 52.98584 41.582512 52.626953 42.89502 52.626953 C 44.248543 52.626953 45.309811 53.006348 46.078857 53.765137 C 46.847904 54.523926 47.232422 55.528801 47.232422 56.779785 C 47.232422 58.010262 46.842777 58.999756 46.063477 59.748291 C 45.284176 60.496826 44.228035 60.871094 42.89502 60.871094 C 41.582512 60.871094 40.541752 60.512207 39.772705 59.794434 C 39.003658 59.07666 38.619141 58.071785 38.619141 56.779785 Z M 51.016113 56.779785 C 51.016113 55.344231 51.431393 54.293213 52.261963 53.626709 C 53.092533 52.960205 54.123039 52.626953 55.353516 52.626953 C 56.686531 52.626953 57.747799 52.996094 58.537354 53.734375 C 59.326908 54.472656 59.72168 55.487785 59.72168 56.779785 C 59.72168 58.030769 59.321781 59.025391 58.521973 59.763672 C 57.722164 60.501953 56.666023 60.871094 55.353516 60.871094 C 54.123039 60.871094 53.092533 60.537842 52.261963 59.871338 C 51.431393 59.204834 51.016113 58.174324 51.016113 56.779785 Z M 225.035156 95.324219 L 226.850098 100 L 233.402344 100 L 233.402344 77.08252 C 233.402344 72.980942 232.17189 69.925308 229.710938 67.915527 C 227.249985 65.905746 223.712433 64.900879 219.098145 64.900879 C 214.278778 64.900879 209.890152 65.936508 205.932129 68.007813 L 209.039063 74.344727 C 212.750992 72.683586 215.980942 71.853027 218.729004 71.853027 C 222.297379 71.853027 224.081543 73.596176 224.081543 77.08252 L 224.081543 78.589844 L 218.11377 78.774414 C 212.966278 78.958984 209.115982 79.917717 206.562744 81.650635 C 204.009506 83.383553 202.73291 86.07518 202.73291 89.725586 C 202.73291 93.211929 203.681381 95.89843 205.578369 97.785156 C 207.475357 99.671883 210.074692 100.615234 213.376465 100.615234 C 216.063004 100.615234 218.241928 100.230713 219.91333 99.46167 C 221.584732 98.692627 223.209946 97.313484 224.789063 95.324219 L 225.035156 95.324219 Z M 191.504883 72.652832 L 199.625977 72.652832 L 199.625977 65.608398 L 191.504883 65.608398 L 191.504883 63.455078 C 191.504883 62.224602 191.802246 61.2146 192.396973 60.425049 C 192.991699 59.635498 193.955566 59.240723 195.288574 59.240723 C 196.888199 59.240723 198.631332 59.538086 200.518066 60.132813 L 202.91748 53.242188 C 200.395004 52.278313 197.513687 51.796387 194.273438 51.796387 C 190.028305 51.796387 186.94191 52.698723 185.01416 54.503418 C 183.086411 56.308113 182.122559 59.16893 182.122559 63.085938 L 182.122559 65.608398 L 176.95459 68.130859 L 176.95459 72.652832 L 182.122559 72.652832 L 182.122559 100 L 191.504883 100 L 191.504883 72.652832 Z M 220.45166 84.188477 L 224.081543 84.06543 L 224.081543 86.895508 C 224.081543 88.966805 223.43042 90.627922 222.128174 91.878906 C 220.825928 93.12989 219.087906 93.755371 216.914063 93.755371 C 213.878891 93.755371 212.361328 92.432632 212.361328 89.787109 C 212.361328 87.941399 213.027832 86.567383 214.36084 85.665039 C 215.693848 84.762695 217.724106 84.270508 220.45166 84.188477 Z M 210.008057 53.703613 C 209.239014 54.421387 208.854492 55.44677 208.854492 56.779785 C 208.854492 58.071785 209.239014 59.07666 210.008057 59.794434 C 210.7771 60.512207 211.817871 60.871094 213.130371 60.871094 C 214.463379 60.871094 215.519531 60.496826 216.298828 59.748291 C 217.078125 58.999756 217.467773 58.010262 217.467773 56.779785 C 217.467773 55.528801 217.083252 54.523926 216.314209 53.765137 C 215.545166 53.006348 214.483887 52.626953 213.130371 52.626953 C 211.817871 52.626953 210.7771 52.98584 210.008057 53.703613 Z M 222.497314 53.626709 C 221.666748 54.293213 221.251465 55.344231 221.251465 56.779785 C 221.251465 58.174324 221.666748 59.204834 222.497314 59.871338 C 223.327881 60.537842 224.358398 60.871094 225.588867 60.871094 C 226.901367 60.871094 227.95752 60.501953 228.757324 59.763672 C 229.557129 59.025391 229.957031 58.030769 229.957031 56.779785 C 229.957031 55.487785 229.562256 54.472656 228.772705 53.734375 C 227.983154 52.996094 226.921875 52.626953 225.588867 52.626953 C 224.358398 52.626953 223.327881 52.960205 222.497314 53.626709 Z"/>
    <path id="Abgerundetes-Rechteck" fill="none" stroke="#b51700" stroke-width="7" stroke-linecap="round" stroke-linejoin="round" d="M 9 101 C 9 123.091393 26.908609 141 49 141 L 311 141 C 333.0914 141 351 123.091393 351 101 L 351 54 C 351 31.908607 333.0914 14 311 14 L 49 14 C 26.908609 14 9 31.908607 9 54 Z"/>
</svg>
